PathFileType	4	(X/Y/Z)	Patient4_TMGait_0pt4_02_right_26.trc.trc
DataRate	CameraRate	NumFrames	NumMarkers	Units	OrigDataRate	OrigDataStartFrame	OrigNumFrames
76.923076923077	76.923076923077	4	33	mm	76.923076923077	18	       141
Frame#	Time	Sacral			L.Shoulder			Chest			R.Shoulder			Neck			R.ASIS			L.ASIS			R.Thigh.Superior			R.Thigh.Lateral			R.Thigh.Inferior			R.Patella			L.Thigh.Superior			L.Thigh.Lateral			L.Thigh.Inferior			L.Patella			L.Shank.Superior			L.Shank.Lateral			L.Shank.Inferior			R.Shank.Superior			R.Shank.Lateral			R.Shank.Inferior			R.Heel			R.Midfoot.Superior			R.Midfoot.Lateral			R.Toe			L.Heel			L.Midfoot.Lateral			L.Midfoot.Superior			L.Toe			L.Elbow			L.Wrist			R.Elbow			R.Wrist			
		X1	Y1	Z1	X2	Y2	Z2	X3	Y3	Z3	X4	Y4	Z4	X5	Y5	Z5	X6	Y6	Z6	X7	Y7	Z7	X8	Y8	Z8	X9	Y9	Z9	X10	Y10	Z10	X11	Y11	Z11	X12	Y12	Z12	X13	Y13	Z13	X14	Y14	Z14	X15	Y15	Z15	X16	Y16	Z16	X17	Y17	Z17	X18	Y18	Z18	X19	Y19	Z19	X20	Y20	Z20	X21	Y21	Z21	X22	Y22	Z22	X23	Y23	Z23	X24	Y24	Z24	X25	Y25	Z25	X26	Y26	Z26	X27	Y27	Z27	X28	Y28	Z28	X29	Y29	Z29	X30	Y30	Z30	X31	Y31	Z31	X32	Y32	Z32	X33	Y33	Z33	

18	34.551000000000	846.061548766065	1003.812877367035	415.091179677911	1053.673610953324	1436.173623019821	256.240794442948	1134.066037053892	1363.510025285240	427.402786219327	1030.306763627301	1435.520173636712	591.117588073358	1017.870038588800	1495.408965557895	411.792849922649	1065.610037262605	946.994808103071	554.286368576946	1072.903278028138	961.784899030244	279.828240506314	1131.603923326208	762.725490182914	534.183393714418	1081.133021686672	648.401530893631	610.485634392528	1166.048536446309	602.408021702013	531.159258943021	1195.778243805938	525.268254152908	550.370794267866	1090.140733953549	737.963249293384	309.436323130575	984.891838891180	635.392623425880	240.620306891834	1049.581051888420	546.900816824722	307.413350316727	1037.586837421275	480.275904301445	316.880212474391	1008.014982275774	411.177502320040	307.528219538923	911.686058645730	303.364294338668	255.072119577083	949.605324269213	189.207954578594	328.994047200720	1185.156059921426	439.646618626430	565.944451675135	1140.206455124799	326.334372560792	636.610299596547	1213.329047268615	241.806469185166	586.507152871131	1130.599871001172	49.538372065147	569.030117039511	1293.206266011170	130.051829139545	600.412855882294	1219.052025051339	51.169266835150	637.960287183843	1420.228906214841	96.695277492612	618.449751457546	814.172022286513	38.782688865277	370.867349921663	886.834216233830	34.757034191290	289.153050910787	970.686693099300	95.522435784681	316.268951101053	1099.323748229913	41.754983787176	285.778732017449	1104.579255908624	1105.881281117830	105.327868517035	1355.368893633460	1074.202838635839	153.678991290566	919.411058674232	1099.379120506414	684.976542502371	948.366831855395	838.523959604769	675.609616479578	
19	34.564000000000	847.812138858240	1002.956972148725	417.096818036438	1054.187996235048	1435.428918510972	257.835630535551	1135.016157171289	1362.937126951100	428.867960796972	1031.462224891340	1434.887425733737	592.719060550457	1018.439417511223	1494.630640946167	413.321282544075	1067.428482968028	945.738229463378	555.905380852518	1074.246150407562	961.134391734796	281.861230097025	1131.097411881305	759.617763341198	536.118919679806	1078.438381341372	645.414484063221	611.129972421386	1163.542337894962	599.272990354237	532.050669271790	1192.102074922193	522.956524673648	550.482351573472	1090.001157437855	736.855508597640	310.420923026221	983.516896247651	635.184373572707	241.648522636921	1047.517478153374	546.065280174395	308.073028175358	1035.016991208311	479.449597564001	317.353169864664	1004.940627820303	410.635053935972	307.942784712457	907.635426767840	303.596880526053	255.387403041872	945.037717212306	188.966293739256	328.943186915423	1182.532601464181	437.292895435199	565.915340756164	1138.006222668874	322.988539990681	634.985637782019	1212.807333340005	239.690861740460	585.182711847545	1132.609290423535	47.133057149785	564.992456204158	1294.147753938760	128.225266420469	599.217510469789	1219.818597116309	49.308680382030	635.408744300563	1421.000130262416	95.532865380205	619.194965165933	808.941682838152	38.833077093956	370.827235595308	881.588025939738	34.746342629599	289.130680601727	965.473944126428	95.458883960388	316.196335520635	1094.076492531617	41.600982468642	285.745569445705	1107.416192459546	1105.720933339667	106.918891599374	1358.423332977609	1077.950370683256	155.477304368926	917.438752289336	1099.730713898502	685.156041504752	942.427193380702	838.424962295920	673.812224809750	
20	34.577000000000	849.722849981097	1001.954061621441	419.386251096377	1054.538912331817	1434.597514873695	259.571011783438	1135.903361127711	1362.403038261650	430.477330445656	1032.530498497315	1434.253175287658	594.470378530086	1018.878351347186	1493.790203584803	414.986814931189	1069.520018745019	944.426780019443	557.704046208558	1075.745735721672	960.466100645299	284.039404929692	1131.592351844891	757.045518899893	538.135256993383	1076.723223669487	642.547245106836	611.535978358846	1162.414523295186	596.667515130042	533.034920012494	1189.566797604577	520.581635368101	550.589053927977	1090.046798543042	735.693602282257	311.489288377910	982.338065015143	634.916782200210	242.841247642488	1045.734495488087	545.169851393917	308.830635605262	1032.762948654646	478.510250079154	317.931230339604	1002.085531887703	409.999151687461	308.474082411272	903.713899097056	303.841696080382	255.828844863889	940.536064602040	188.689118957994	328.961410178649	1180.257000121955	434.551614083836	565.617550425568	1134.890928297861	319.801691895007	632.963734724980	1210.323930955303	237.020477629072	583.461378340536	1130.465578382015	45.550205992686	560.686259454834	1291.657769119271	125.211714198788	597.447065237967	1216.396970957085	47.346147593610	632.529055489569	1417.912777005631	91.833721332420	619.362973455191	803.708666395684	38.858467027182	370.795261975474	876.340943033404	34.734207568877	289.121748333921	960.257905790041	95.402506836056	316.141412063964	1088.823253436133	41.453455815035	285.709112658953	1109.823801510057	1105.406023784200	108.657468677904	1360.989481059620	1080.934724368984	157.267345700819	915.773755270277	1100.075076026131	685.818445638680	937.765575219545	838.447358221377	672.747645825608	
21	34.590000000000	851.759391530053	1000.814655997744	421.930107563565	1054.759490125558	1433.676342712318	261.443908274908	1136.738464536445	1361.896740024348	432.235115004425	1033.511147596054	1433.611029593557	596.369034570190	1019.209473738477	1492.892482035149	416.788966891625	1071.864136869478	943.086307284116	559.672446473375	1077.388727051239	959.786520394508	286.308438657478	1133.080343030696	754.972581417554	540.200593198708	1075.987380734633	639.845827949410	611.740393710527	1162.574315788717	594.557636497229	534.070052603140	1188.118053421824	518.156347554837	550.607079684049	1090.281985590282	734.484489325700	312.640653201161	981.380055514477	634.578478836003	244.199779220195	1044.262913341543	544.209791925536	309.698345969354	1030.869851587411	477.442642111267	318.628229570983	999.482646951681	409.255237792103	309.141576828578	899.959550340693	304.090862456540	256.418311271639	936.109621222753	188.369619346893	329.073504527046	1178.417256971813	431.494808679088	565.050000392198	1131.237204441565	316.773880035951	630.739719863306	1206.328399188238	233.844398955969	581.435227673312	1124.875896693301	44.519658828474	556.459938444261	1286.380392825797	121.246470299557	595.205354254423	1209.634628047217	45.296265969469	629.563375373850	1411.779707666252	86.133574301206	618.919852204443	798.473979159799	38.866542675225	370.774080842790	871.097125594279	34.726623920474	289.131769812248	955.045670589761	95.355952608695	316.113768110945	1083.569263927886	41.306885271866	285.667800625781	1111.776302085160	1104.909923431827	110.535554033881	1363.066354998414	1083.102542341906	159.037618399898	914.518649822468	1100.351254061985	686.987038613573	934.421497715467	838.493769888715	672.441843670839	
